<mxfile host="app.diagrams.net" agent="Mozilla/5.0 (Windows NT 10.0; Win64; x64) AppleWebKit/537.36 (KHTML, like Gecko) Chrome/133.0.0.0 Safari/537.36" version="26.0.16">
  <diagram name="Página-1" id="dHAkxRGY66yhEo0F55Hl">
    <mxGraphModel dx="4097" dy="4229" grid="1" gridSize="10" guides="1" tooltips="1" connect="1" arrows="1" fold="1" page="1" pageScale="1" pageWidth="2000" pageHeight="2000" math="0" shadow="0">
      <root>
        <mxCell id="0" />
        <mxCell id="1" parent="0" />
        <mxCell id="cFKUJUFckRlymG0bqKCA-7" value="" style="edgeStyle=orthogonalEdgeStyle;rounded=0;orthogonalLoop=1;jettySize=auto;html=1;" parent="1" source="cFKUJUFckRlymG0bqKCA-1" target="cFKUJUFckRlymG0bqKCA-6" edge="1">
          <mxGeometry relative="1" as="geometry" />
        </mxCell>
        <mxCell id="cFKUJUFckRlymG0bqKCA-1" value="inicio&amp;nbsp;" style="ellipse;whiteSpace=wrap;html=1;" parent="1" vertex="1">
          <mxGeometry x="165" y="210" width="90" height="70" as="geometry" />
        </mxCell>
        <mxCell id="cFKUJUFckRlymG0bqKCA-15" value="" style="edgeStyle=orthogonalEdgeStyle;rounded=0;orthogonalLoop=1;jettySize=auto;html=1;" parent="1" source="cFKUJUFckRlymG0bqKCA-2" target="cFKUJUFckRlymG0bqKCA-11" edge="1">
          <mxGeometry relative="1" as="geometry" />
        </mxCell>
        <mxCell id="cFKUJUFckRlymG0bqKCA-2" value="cliente fala seu nome&amp;nbsp;&lt;div&gt;ao atendende&lt;/div&gt;" style="rounded=0;whiteSpace=wrap;html=1;" parent="1" vertex="1">
          <mxGeometry x="150" y="410" width="120" height="60" as="geometry" />
        </mxCell>
        <mxCell id="cFKUJUFckRlymG0bqKCA-14" value="" style="edgeStyle=orthogonalEdgeStyle;rounded=0;orthogonalLoop=1;jettySize=auto;html=1;" parent="1" source="cFKUJUFckRlymG0bqKCA-6" target="cFKUJUFckRlymG0bqKCA-2" edge="1">
          <mxGeometry relative="1" as="geometry" />
        </mxCell>
        <mxCell id="cFKUJUFckRlymG0bqKCA-6" value="cliente chega na&lt;div&gt;cafeteria&lt;/div&gt;" style="whiteSpace=wrap;html=1;" parent="1" vertex="1">
          <mxGeometry x="150" y="320" width="120" height="60" as="geometry" />
        </mxCell>
        <mxCell id="cFKUJUFckRlymG0bqKCA-17" value="sim" style="edgeStyle=orthogonalEdgeStyle;rounded=0;orthogonalLoop=1;jettySize=auto;html=1;" parent="1" source="cFKUJUFckRlymG0bqKCA-11" target="cFKUJUFckRlymG0bqKCA-16" edge="1">
          <mxGeometry relative="1" as="geometry" />
        </mxCell>
        <mxCell id="cFKUJUFckRlymG0bqKCA-19" value="não" style="edgeStyle=orthogonalEdgeStyle;rounded=0;orthogonalLoop=1;jettySize=auto;html=1;" parent="1" source="cFKUJUFckRlymG0bqKCA-11" target="cFKUJUFckRlymG0bqKCA-18" edge="1">
          <mxGeometry relative="1" as="geometry" />
        </mxCell>
        <mxCell id="cFKUJUFckRlymG0bqKCA-11" value="&lt;font size=&quot;3&quot;&gt;café expresso?&lt;/font&gt;" style="rhombus;whiteSpace=wrap;html=1;" parent="1" vertex="1">
          <mxGeometry x="155" y="500" width="110" height="80" as="geometry" />
        </mxCell>
        <mxCell id="cFKUJUFckRlymG0bqKCA-22" value="" style="edgeStyle=orthogonalEdgeStyle;rounded=0;orthogonalLoop=1;jettySize=auto;html=1;" parent="1" source="cFKUJUFckRlymG0bqKCA-16" target="cFKUJUFckRlymG0bqKCA-20" edge="1">
          <mxGeometry relative="1" as="geometry" />
        </mxCell>
        <mxCell id="cFKUJUFckRlymG0bqKCA-16" value="prepara o café expresso" style="whiteSpace=wrap;html=1;" parent="1" vertex="1">
          <mxGeometry x="340" y="510" width="120" height="60" as="geometry" />
        </mxCell>
        <mxCell id="cFKUJUFckRlymG0bqKCA-21" value="" style="edgeStyle=orthogonalEdgeStyle;rounded=0;orthogonalLoop=1;jettySize=auto;html=1;" parent="1" source="cFKUJUFckRlymG0bqKCA-18" target="cFKUJUFckRlymG0bqKCA-20" edge="1">
          <mxGeometry relative="1" as="geometry" />
        </mxCell>
        <mxCell id="cFKUJUFckRlymG0bqKCA-18" value="prepara um Latte" style="whiteSpace=wrap;html=1;" parent="1" vertex="1">
          <mxGeometry x="150" y="610" width="120" height="60" as="geometry" />
        </mxCell>
        <mxCell id="cFKUJUFckRlymG0bqKCA-24" value="" style="edgeStyle=orthogonalEdgeStyle;rounded=0;orthogonalLoop=1;jettySize=auto;html=1;" parent="1" source="cFKUJUFckRlymG0bqKCA-20" target="cFKUJUFckRlymG0bqKCA-23" edge="1">
          <mxGeometry relative="1" as="geometry" />
        </mxCell>
        <mxCell id="cFKUJUFckRlymG0bqKCA-20" value="chama o cliente pelo nome" style="whiteSpace=wrap;html=1;" parent="1" vertex="1">
          <mxGeometry x="340" y="610" width="120" height="60" as="geometry" />
        </mxCell>
        <mxCell id="cFKUJUFckRlymG0bqKCA-29" value="" style="edgeStyle=orthogonalEdgeStyle;rounded=0;orthogonalLoop=1;jettySize=auto;html=1;" parent="1" source="cFKUJUFckRlymG0bqKCA-23" target="cFKUJUFckRlymG0bqKCA-28" edge="1">
          <mxGeometry relative="1" as="geometry" />
        </mxCell>
        <mxCell id="cFKUJUFckRlymG0bqKCA-23" value="entrega o café" style="whiteSpace=wrap;html=1;" parent="1" vertex="1">
          <mxGeometry x="340" y="700" width="120" height="60" as="geometry" />
        </mxCell>
        <mxCell id="cFKUJUFckRlymG0bqKCA-25" value="Atividade 1" style="text;html=1;align=center;verticalAlign=middle;whiteSpace=wrap;rounded=0;" parent="1" vertex="1">
          <mxGeometry x="330" y="360" width="80" height="40" as="geometry" />
        </mxCell>
        <mxCell id="cFKUJUFckRlymG0bqKCA-28" value="fim" style="ellipse;whiteSpace=wrap;html=1;" parent="1" vertex="1">
          <mxGeometry x="350" y="780" width="100" height="70" as="geometry" />
        </mxCell>
        <mxCell id="cFKUJUFckRlymG0bqKCA-32" value="" style="edgeStyle=orthogonalEdgeStyle;rounded=0;orthogonalLoop=1;jettySize=auto;html=1;" parent="1" source="cFKUJUFckRlymG0bqKCA-30" target="cFKUJUFckRlymG0bqKCA-31" edge="1">
          <mxGeometry relative="1" as="geometry" />
        </mxCell>
        <mxCell id="cFKUJUFckRlymG0bqKCA-30" value="inicio" style="ellipse;whiteSpace=wrap;html=1;" parent="1" vertex="1">
          <mxGeometry x="760" y="240" width="120" height="80" as="geometry" />
        </mxCell>
        <mxCell id="cFKUJUFckRlymG0bqKCA-34" value="sim" style="edgeStyle=orthogonalEdgeStyle;rounded=0;orthogonalLoop=1;jettySize=auto;html=1;" parent="1" source="cFKUJUFckRlymG0bqKCA-31" target="cFKUJUFckRlymG0bqKCA-33" edge="1">
          <mxGeometry relative="1" as="geometry" />
        </mxCell>
        <mxCell id="cFKUJUFckRlymG0bqKCA-36" value="não" style="edgeStyle=orthogonalEdgeStyle;rounded=0;orthogonalLoop=1;jettySize=auto;html=1;" parent="1" source="cFKUJUFckRlymG0bqKCA-31" target="cFKUJUFckRlymG0bqKCA-35" edge="1">
          <mxGeometry relative="1" as="geometry" />
        </mxCell>
        <mxCell id="cFKUJUFckRlymG0bqKCA-31" value="o tempo está&amp;nbsp;&lt;div&gt;frio?&lt;/div&gt;" style="rhombus;whiteSpace=wrap;html=1;" parent="1" vertex="1">
          <mxGeometry x="755" y="360" width="130" height="80" as="geometry" />
        </mxCell>
        <mxCell id="cFKUJUFckRlymG0bqKCA-39" value="" style="edgeStyle=orthogonalEdgeStyle;rounded=0;orthogonalLoop=1;jettySize=auto;html=1;" parent="1" source="cFKUJUFckRlymG0bqKCA-33" target="cFKUJUFckRlymG0bqKCA-37" edge="1">
          <mxGeometry relative="1" as="geometry" />
        </mxCell>
        <mxCell id="cFKUJUFckRlymG0bqKCA-33" value="vestir casaco" style="whiteSpace=wrap;html=1;" parent="1" vertex="1">
          <mxGeometry x="970" y="370" width="120" height="60" as="geometry" />
        </mxCell>
        <mxCell id="cFKUJUFckRlymG0bqKCA-38" value="" style="edgeStyle=orthogonalEdgeStyle;rounded=0;orthogonalLoop=1;jettySize=auto;html=1;" parent="1" source="cFKUJUFckRlymG0bqKCA-35" target="cFKUJUFckRlymG0bqKCA-37" edge="1">
          <mxGeometry relative="1" as="geometry" />
        </mxCell>
        <mxCell id="cFKUJUFckRlymG0bqKCA-35" value="escolher roupas leves" style="whiteSpace=wrap;html=1;" parent="1" vertex="1">
          <mxGeometry x="760" y="500" width="120" height="60" as="geometry" />
        </mxCell>
        <mxCell id="cFKUJUFckRlymG0bqKCA-43" value="não" style="edgeStyle=orthogonalEdgeStyle;rounded=0;orthogonalLoop=1;jettySize=auto;html=1;" parent="1" source="cFKUJUFckRlymG0bqKCA-37" target="cFKUJUFckRlymG0bqKCA-42" edge="1">
          <mxGeometry relative="1" as="geometry" />
        </mxCell>
        <mxCell id="cFKUJUFckRlymG0bqKCA-45" value="sim" style="edgeStyle=orthogonalEdgeStyle;rounded=0;orthogonalLoop=1;jettySize=auto;html=1;" parent="1" source="cFKUJUFckRlymG0bqKCA-37" target="cFKUJUFckRlymG0bqKCA-44" edge="1">
          <mxGeometry relative="1" as="geometry" />
        </mxCell>
        <mxCell id="cFKUJUFckRlymG0bqKCA-37" value="está chovendo?" style="rhombus;whiteSpace=wrap;html=1;" parent="1" vertex="1">
          <mxGeometry x="970" y="485" width="120" height="90" as="geometry" />
        </mxCell>
        <mxCell id="cFKUJUFckRlymG0bqKCA-42" value="fim" style="ellipse;whiteSpace=wrap;html=1;" parent="1" vertex="1">
          <mxGeometry x="1140" y="490" width="120" height="80" as="geometry" />
        </mxCell>
        <mxCell id="cFKUJUFckRlymG0bqKCA-46" style="edgeStyle=orthogonalEdgeStyle;rounded=0;orthogonalLoop=1;jettySize=auto;html=1;entryX=0.5;entryY=1;entryDx=0;entryDy=0;" parent="1" source="cFKUJUFckRlymG0bqKCA-44" target="cFKUJUFckRlymG0bqKCA-42" edge="1">
          <mxGeometry relative="1" as="geometry" />
        </mxCell>
        <mxCell id="cFKUJUFckRlymG0bqKCA-44" value="usar guarda chuva" style="whiteSpace=wrap;html=1;" parent="1" vertex="1">
          <mxGeometry x="970" y="620" width="120" height="60" as="geometry" />
        </mxCell>
        <mxCell id="cFKUJUFckRlymG0bqKCA-47" value="Atividade 2" style="text;html=1;align=center;verticalAlign=middle;whiteSpace=wrap;rounded=0;" parent="1" vertex="1">
          <mxGeometry x="950" y="280" width="110" height="60" as="geometry" />
        </mxCell>
        <mxCell id="cFKUJUFckRlymG0bqKCA-54" value="" style="edgeStyle=orthogonalEdgeStyle;rounded=0;orthogonalLoop=1;jettySize=auto;html=1;" parent="1" source="cFKUJUFckRlymG0bqKCA-48" edge="1">
          <mxGeometry relative="1" as="geometry">
            <mxPoint x="1855" y="-240" as="targetPoint" />
          </mxGeometry>
        </mxCell>
        <mxCell id="cFKUJUFckRlymG0bqKCA-48" value="inicio" style="ellipse;whiteSpace=wrap;html=1;" parent="1" vertex="1">
          <mxGeometry x="1795" y="-360" width="120" height="80" as="geometry" />
        </mxCell>
        <mxCell id="cFKUJUFckRlymG0bqKCA-89" value="" style="edgeStyle=orthogonalEdgeStyle;rounded=0;orthogonalLoop=1;jettySize=auto;html=1;" parent="1" source="cFKUJUFckRlymG0bqKCA-87" target="cFKUJUFckRlymG0bqKCA-88" edge="1">
          <mxGeometry relative="1" as="geometry" />
        </mxCell>
        <mxCell id="cFKUJUFckRlymG0bqKCA-87" value="inicio" style="ellipse;whiteSpace=wrap;html=1;" parent="1" vertex="1">
          <mxGeometry x="350" y="980" width="120" height="80" as="geometry" />
        </mxCell>
        <mxCell id="cFKUJUFckRlymG0bqKCA-91" value="" style="edgeStyle=orthogonalEdgeStyle;rounded=0;orthogonalLoop=1;jettySize=auto;html=1;" parent="1" source="cFKUJUFckRlymG0bqKCA-88" target="cFKUJUFckRlymG0bqKCA-90" edge="1">
          <mxGeometry relative="1" as="geometry" />
        </mxCell>
        <mxCell id="cFKUJUFckRlymG0bqKCA-88" value="nome = digite seu nome" style="whiteSpace=wrap;html=1;" parent="1" vertex="1">
          <mxGeometry x="350" y="1090" width="120" height="60" as="geometry" />
        </mxCell>
        <mxCell id="cFKUJUFckRlymG0bqKCA-93" value="" style="edgeStyle=orthogonalEdgeStyle;rounded=0;orthogonalLoop=1;jettySize=auto;html=1;" parent="1" source="cFKUJUFckRlymG0bqKCA-90" target="cFKUJUFckRlymG0bqKCA-92" edge="1">
          <mxGeometry relative="1" as="geometry" />
        </mxCell>
        <mxCell id="cFKUJUFckRlymG0bqKCA-90" value="exibir&amp;nbsp; &amp;nbsp;(f&quot;Olá, {nome} &quot;)" style="whiteSpace=wrap;html=1;" parent="1" vertex="1">
          <mxGeometry x="345" y="1190" width="130" height="60" as="geometry" />
        </mxCell>
        <mxCell id="cFKUJUFckRlymG0bqKCA-92" value="fim" style="ellipse;whiteSpace=wrap;html=1;" parent="1" vertex="1">
          <mxGeometry x="355" y="1290" width="120" height="80" as="geometry" />
        </mxCell>
        <mxCell id="cFKUJUFckRlymG0bqKCA-94" value="atividade 4" style="text;html=1;align=center;verticalAlign=middle;whiteSpace=wrap;rounded=0;" parent="1" vertex="1">
          <mxGeometry x="530" y="1010" width="80" height="30" as="geometry" />
        </mxCell>
        <mxCell id="cFKUJUFckRlymG0bqKCA-98" value="" style="edgeStyle=orthogonalEdgeStyle;rounded=0;orthogonalLoop=1;jettySize=auto;html=1;" parent="1" source="cFKUJUFckRlymG0bqKCA-95" target="cFKUJUFckRlymG0bqKCA-96" edge="1">
          <mxGeometry relative="1" as="geometry" />
        </mxCell>
        <mxCell id="cFKUJUFckRlymG0bqKCA-95" value="inicio" style="ellipse;whiteSpace=wrap;html=1;" parent="1" vertex="1">
          <mxGeometry x="1265" y="970" width="120" height="80" as="geometry" />
        </mxCell>
        <mxCell id="cFKUJUFckRlymG0bqKCA-99" value="" style="edgeStyle=orthogonalEdgeStyle;rounded=0;orthogonalLoop=1;jettySize=auto;html=1;" parent="1" source="cFKUJUFckRlymG0bqKCA-96" target="cFKUJUFckRlymG0bqKCA-97" edge="1">
          <mxGeometry relative="1" as="geometry" />
        </mxCell>
        <mxCell id="cFKUJUFckRlymG0bqKCA-96" value="n1 = digite um numero" style="whiteSpace=wrap;html=1;" parent="1" vertex="1">
          <mxGeometry x="1250" y="1090" width="150" height="60" as="geometry" />
        </mxCell>
        <mxCell id="cFKUJUFckRlymG0bqKCA-101" value="" style="edgeStyle=orthogonalEdgeStyle;rounded=0;orthogonalLoop=1;jettySize=auto;html=1;" parent="1" source="cFKUJUFckRlymG0bqKCA-97" target="cFKUJUFckRlymG0bqKCA-100" edge="1">
          <mxGeometry relative="1" as="geometry" />
        </mxCell>
        <mxCell id="cFKUJUFckRlymG0bqKCA-97" value="n2 = digite um numero" style="whiteSpace=wrap;html=1;" parent="1" vertex="1">
          <mxGeometry x="1265" y="1190" width="120" height="60" as="geometry" />
        </mxCell>
        <mxCell id="cFKUJUFckRlymG0bqKCA-103" value="" style="edgeStyle=orthogonalEdgeStyle;rounded=0;orthogonalLoop=1;jettySize=auto;html=1;" parent="1" source="cFKUJUFckRlymG0bqKCA-100" target="cFKUJUFckRlymG0bqKCA-102" edge="1">
          <mxGeometry relative="1" as="geometry" />
        </mxCell>
        <mxCell id="cFKUJUFckRlymG0bqKCA-100" value="calculo = n1+n2" style="whiteSpace=wrap;html=1;" parent="1" vertex="1">
          <mxGeometry x="1265" y="1280" width="120" height="60" as="geometry" />
        </mxCell>
        <mxCell id="cFKUJUFckRlymG0bqKCA-105" value="" style="edgeStyle=orthogonalEdgeStyle;rounded=0;orthogonalLoop=1;jettySize=auto;html=1;" parent="1" source="cFKUJUFckRlymG0bqKCA-102" target="cFKUJUFckRlymG0bqKCA-104" edge="1">
          <mxGeometry relative="1" as="geometry" />
        </mxCell>
        <mxCell id="cFKUJUFckRlymG0bqKCA-102" value="exiba calculo" style="whiteSpace=wrap;html=1;" parent="1" vertex="1">
          <mxGeometry x="1265" y="1370" width="120" height="60" as="geometry" />
        </mxCell>
        <mxCell id="cFKUJUFckRlymG0bqKCA-104" value="fim" style="ellipse;whiteSpace=wrap;html=1;" parent="1" vertex="1">
          <mxGeometry x="1265" y="1470" width="120" height="80" as="geometry" />
        </mxCell>
        <mxCell id="cFKUJUFckRlymG0bqKCA-106" value="atividade 6" style="text;html=1;align=center;verticalAlign=middle;whiteSpace=wrap;rounded=0;" parent="1" vertex="1">
          <mxGeometry x="1440" y="1010" width="125" height="30" as="geometry" />
        </mxCell>
        <mxCell id="cFKUJUFckRlymG0bqKCA-109" value="" style="edgeStyle=orthogonalEdgeStyle;rounded=0;orthogonalLoop=1;jettySize=auto;html=1;" parent="1" source="cFKUJUFckRlymG0bqKCA-110" target="cFKUJUFckRlymG0bqKCA-112" edge="1">
          <mxGeometry relative="1" as="geometry" />
        </mxCell>
        <mxCell id="cFKUJUFckRlymG0bqKCA-110" value="inicio" style="ellipse;whiteSpace=wrap;html=1;" parent="1" vertex="1">
          <mxGeometry x="2295" y="1090" width="120" height="80" as="geometry" />
        </mxCell>
        <mxCell id="cFKUJUFckRlymG0bqKCA-111" value="" style="edgeStyle=orthogonalEdgeStyle;rounded=0;orthogonalLoop=1;jettySize=auto;html=1;" parent="1" source="cFKUJUFckRlymG0bqKCA-112" target="cFKUJUFckRlymG0bqKCA-114" edge="1">
          <mxGeometry relative="1" as="geometry" />
        </mxCell>
        <mxCell id="cFKUJUFckRlymG0bqKCA-112" value="n1 = digite um numero" style="whiteSpace=wrap;html=1;" parent="1" vertex="1">
          <mxGeometry x="2280" y="1210" width="150" height="60" as="geometry" />
        </mxCell>
        <mxCell id="cFKUJUFckRlymG0bqKCA-119" value="" style="edgeStyle=orthogonalEdgeStyle;rounded=0;orthogonalLoop=1;jettySize=auto;html=1;" parent="1" source="cFKUJUFckRlymG0bqKCA-114" target="cFKUJUFckRlymG0bqKCA-118" edge="1">
          <mxGeometry relative="1" as="geometry" />
        </mxCell>
        <mxCell id="cFKUJUFckRlymG0bqKCA-114" value="n2 = digite um numero" style="whiteSpace=wrap;html=1;" parent="1" vertex="1">
          <mxGeometry x="2295" y="1310" width="120" height="60" as="geometry" />
        </mxCell>
        <mxCell id="cFKUJUFckRlymG0bqKCA-115" value="" style="edgeStyle=orthogonalEdgeStyle;rounded=0;orthogonalLoop=1;jettySize=auto;html=1;" parent="1" source="cFKUJUFckRlymG0bqKCA-116" target="cFKUJUFckRlymG0bqKCA-117" edge="1">
          <mxGeometry relative="1" as="geometry" />
        </mxCell>
        <mxCell id="cFKUJUFckRlymG0bqKCA-116" value="calculo = (n1+n2+n3)/3" style="whiteSpace=wrap;html=1;" parent="1" vertex="1">
          <mxGeometry x="2295" y="1480" width="120" height="60" as="geometry" />
        </mxCell>
        <mxCell id="cFKUJUFckRlymG0bqKCA-122" value="" style="edgeStyle=orthogonalEdgeStyle;rounded=0;orthogonalLoop=1;jettySize=auto;html=1;" parent="1" source="cFKUJUFckRlymG0bqKCA-117" target="cFKUJUFckRlymG0bqKCA-121" edge="1">
          <mxGeometry relative="1" as="geometry" />
        </mxCell>
        <mxCell id="cFKUJUFckRlymG0bqKCA-117" value="exiba calculo" style="whiteSpace=wrap;html=1;" parent="1" vertex="1">
          <mxGeometry x="2295" y="1570" width="120" height="60" as="geometry" />
        </mxCell>
        <mxCell id="cFKUJUFckRlymG0bqKCA-120" value="" style="edgeStyle=orthogonalEdgeStyle;rounded=0;orthogonalLoop=1;jettySize=auto;html=1;" parent="1" source="cFKUJUFckRlymG0bqKCA-118" target="cFKUJUFckRlymG0bqKCA-116" edge="1">
          <mxGeometry relative="1" as="geometry" />
        </mxCell>
        <mxCell id="cFKUJUFckRlymG0bqKCA-118" value="n3 = digite um numero" style="whiteSpace=wrap;html=1;" parent="1" vertex="1">
          <mxGeometry x="2270" y="1390" width="170" height="60" as="geometry" />
        </mxCell>
        <mxCell id="cFKUJUFckRlymG0bqKCA-121" value="fim" style="ellipse;whiteSpace=wrap;html=1;" parent="1" vertex="1">
          <mxGeometry x="2295" y="1660" width="120" height="80" as="geometry" />
        </mxCell>
        <mxCell id="cFKUJUFckRlymG0bqKCA-123" value="atividade 8" style="text;html=1;align=center;verticalAlign=middle;whiteSpace=wrap;rounded=0;" parent="1" vertex="1">
          <mxGeometry x="2490" y="1140" width="90" height="30" as="geometry" />
        </mxCell>
        <mxCell id="cFKUJUFckRlymG0bqKCA-126" value="" style="edgeStyle=orthogonalEdgeStyle;rounded=0;orthogonalLoop=1;jettySize=auto;html=1;" parent="1" source="cFKUJUFckRlymG0bqKCA-124" target="cFKUJUFckRlymG0bqKCA-125" edge="1">
          <mxGeometry relative="1" as="geometry" />
        </mxCell>
        <mxCell id="cFKUJUFckRlymG0bqKCA-124" value="inicio" style="ellipse;whiteSpace=wrap;html=1;" parent="1" vertex="1">
          <mxGeometry x="2710" y="1110" width="120" height="80" as="geometry" />
        </mxCell>
        <mxCell id="cFKUJUFckRlymG0bqKCA-128" value="" style="edgeStyle=orthogonalEdgeStyle;rounded=0;orthogonalLoop=1;jettySize=auto;html=1;" parent="1" source="cFKUJUFckRlymG0bqKCA-125" target="cFKUJUFckRlymG0bqKCA-127" edge="1">
          <mxGeometry relative="1" as="geometry" />
        </mxCell>
        <mxCell id="cFKUJUFckRlymG0bqKCA-125" value="idade = qual a sua idade?" style="whiteSpace=wrap;html=1;" parent="1" vertex="1">
          <mxGeometry x="2710" y="1220" width="120" height="60" as="geometry" />
        </mxCell>
        <mxCell id="cFKUJUFckRlymG0bqKCA-130" value="" style="edgeStyle=orthogonalEdgeStyle;rounded=0;orthogonalLoop=1;jettySize=auto;html=1;" parent="1" source="cFKUJUFckRlymG0bqKCA-127" target="cFKUJUFckRlymG0bqKCA-129" edge="1">
          <mxGeometry relative="1" as="geometry" />
        </mxCell>
        <mxCell id="cFKUJUFckRlymG0bqKCA-132" value="" style="edgeStyle=orthogonalEdgeStyle;rounded=0;orthogonalLoop=1;jettySize=auto;html=1;" parent="1" source="cFKUJUFckRlymG0bqKCA-127" target="cFKUJUFckRlymG0bqKCA-131" edge="1">
          <mxGeometry relative="1" as="geometry" />
        </mxCell>
        <mxCell id="cFKUJUFckRlymG0bqKCA-127" value="idade &amp;lt;=12" style="rhombus;whiteSpace=wrap;html=1;" parent="1" vertex="1">
          <mxGeometry x="2730" y="1350" width="80" height="80" as="geometry" />
        </mxCell>
        <mxCell id="cFKUJUFckRlymG0bqKCA-144" style="edgeStyle=orthogonalEdgeStyle;rounded=0;orthogonalLoop=1;jettySize=auto;html=1;entryX=0;entryY=0.5;entryDx=0;entryDy=0;" parent="1" source="cFKUJUFckRlymG0bqKCA-129" target="cFKUJUFckRlymG0bqKCA-143" edge="1">
          <mxGeometry relative="1" as="geometry">
            <Array as="points">
              <mxPoint x="2770" y="1710" />
            </Array>
          </mxGeometry>
        </mxCell>
        <mxCell id="cFKUJUFckRlymG0bqKCA-129" value="exiba Criança" style="whiteSpace=wrap;html=1;" parent="1" vertex="1">
          <mxGeometry x="2710" y="1520" width="120" height="60" as="geometry" />
        </mxCell>
        <mxCell id="cFKUJUFckRlymG0bqKCA-134" value="" style="edgeStyle=orthogonalEdgeStyle;rounded=0;orthogonalLoop=1;jettySize=auto;html=1;" parent="1" source="cFKUJUFckRlymG0bqKCA-131" target="cFKUJUFckRlymG0bqKCA-133" edge="1">
          <mxGeometry relative="1" as="geometry" />
        </mxCell>
        <mxCell id="cFKUJUFckRlymG0bqKCA-136" value="" style="edgeStyle=orthogonalEdgeStyle;rounded=0;orthogonalLoop=1;jettySize=auto;html=1;" parent="1" source="cFKUJUFckRlymG0bqKCA-131" target="cFKUJUFckRlymG0bqKCA-135" edge="1">
          <mxGeometry relative="1" as="geometry" />
        </mxCell>
        <mxCell id="cFKUJUFckRlymG0bqKCA-131" value="idade &amp;gt;12&amp;lt;18" style="rhombus;whiteSpace=wrap;html=1;" parent="1" vertex="1">
          <mxGeometry x="2890" y="1350" width="80" height="80" as="geometry" />
        </mxCell>
        <mxCell id="cFKUJUFckRlymG0bqKCA-145" style="edgeStyle=orthogonalEdgeStyle;rounded=0;orthogonalLoop=1;jettySize=auto;html=1;entryX=0;entryY=0;entryDx=0;entryDy=0;" parent="1" source="cFKUJUFckRlymG0bqKCA-133" target="cFKUJUFckRlymG0bqKCA-143" edge="1">
          <mxGeometry relative="1" as="geometry">
            <Array as="points">
              <mxPoint x="2930" y="1682" />
            </Array>
          </mxGeometry>
        </mxCell>
        <mxCell id="cFKUJUFckRlymG0bqKCA-133" value="exiba Adolescente" style="whiteSpace=wrap;html=1;" parent="1" vertex="1">
          <mxGeometry x="2870" y="1520" width="120" height="60" as="geometry" />
        </mxCell>
        <mxCell id="cFKUJUFckRlymG0bqKCA-138" value="" style="edgeStyle=orthogonalEdgeStyle;rounded=0;orthogonalLoop=1;jettySize=auto;html=1;" parent="1" source="cFKUJUFckRlymG0bqKCA-135" target="cFKUJUFckRlymG0bqKCA-137" edge="1">
          <mxGeometry relative="1" as="geometry" />
        </mxCell>
        <mxCell id="cFKUJUFckRlymG0bqKCA-140" value="" style="edgeStyle=orthogonalEdgeStyle;rounded=0;orthogonalLoop=1;jettySize=auto;html=1;" parent="1" source="cFKUJUFckRlymG0bqKCA-135" target="cFKUJUFckRlymG0bqKCA-139" edge="1">
          <mxGeometry relative="1" as="geometry" />
        </mxCell>
        <mxCell id="cFKUJUFckRlymG0bqKCA-135" value="idade &amp;gt;17&amp;lt;=59" style="rhombus;whiteSpace=wrap;html=1;" parent="1" vertex="1">
          <mxGeometry x="3050" y="1350" width="80" height="80" as="geometry" />
        </mxCell>
        <mxCell id="cFKUJUFckRlymG0bqKCA-146" style="edgeStyle=orthogonalEdgeStyle;rounded=0;orthogonalLoop=1;jettySize=auto;html=1;entryX=0.5;entryY=0;entryDx=0;entryDy=0;" parent="1" source="cFKUJUFckRlymG0bqKCA-137" target="cFKUJUFckRlymG0bqKCA-143" edge="1">
          <mxGeometry relative="1" as="geometry" />
        </mxCell>
        <mxCell id="cFKUJUFckRlymG0bqKCA-137" value="exiba adulto" style="whiteSpace=wrap;html=1;" parent="1" vertex="1">
          <mxGeometry x="3030" y="1520" width="120" height="60" as="geometry" />
        </mxCell>
        <mxCell id="cFKUJUFckRlymG0bqKCA-142" value="" style="edgeStyle=orthogonalEdgeStyle;rounded=0;orthogonalLoop=1;jettySize=auto;html=1;" parent="1" source="cFKUJUFckRlymG0bqKCA-139" target="cFKUJUFckRlymG0bqKCA-141" edge="1">
          <mxGeometry relative="1" as="geometry" />
        </mxCell>
        <mxCell id="cFKUJUFckRlymG0bqKCA-139" value="idade &amp;gt;60" style="rhombus;whiteSpace=wrap;html=1;" parent="1" vertex="1">
          <mxGeometry x="3210" y="1350" width="80" height="80" as="geometry" />
        </mxCell>
        <mxCell id="cFKUJUFckRlymG0bqKCA-147" style="edgeStyle=orthogonalEdgeStyle;rounded=0;orthogonalLoop=1;jettySize=auto;html=1;entryX=1;entryY=0.5;entryDx=0;entryDy=0;" parent="1" source="cFKUJUFckRlymG0bqKCA-141" target="cFKUJUFckRlymG0bqKCA-143" edge="1">
          <mxGeometry relative="1" as="geometry" />
        </mxCell>
        <mxCell id="cFKUJUFckRlymG0bqKCA-141" value="exiba idoso" style="whiteSpace=wrap;html=1;" parent="1" vertex="1">
          <mxGeometry x="3190" y="1520" width="120" height="60" as="geometry" />
        </mxCell>
        <mxCell id="cFKUJUFckRlymG0bqKCA-143" value="fim" style="ellipse;whiteSpace=wrap;html=1;" parent="1" vertex="1">
          <mxGeometry x="3000" y="1670" width="120" height="80" as="geometry" />
        </mxCell>
        <mxCell id="YArdOLymc6WrVnxbB5pt-3" value="" style="edgeStyle=orthogonalEdgeStyle;rounded=0;orthogonalLoop=1;jettySize=auto;html=1;" parent="1" source="YArdOLymc6WrVnxbB5pt-1" target="YArdOLymc6WrVnxbB5pt-2" edge="1">
          <mxGeometry relative="1" as="geometry" />
        </mxCell>
        <mxCell id="YArdOLymc6WrVnxbB5pt-1" value="inicio" style="ellipse;whiteSpace=wrap;html=1;" parent="1" vertex="1">
          <mxGeometry x="755" y="970" width="120" height="80" as="geometry" />
        </mxCell>
        <mxCell id="YArdOLymc6WrVnxbB5pt-5" value="" style="edgeStyle=orthogonalEdgeStyle;rounded=0;orthogonalLoop=1;jettySize=auto;html=1;" parent="1" source="YArdOLymc6WrVnxbB5pt-2" target="YArdOLymc6WrVnxbB5pt-4" edge="1">
          <mxGeometry relative="1" as="geometry" />
        </mxCell>
        <mxCell id="YArdOLymc6WrVnxbB5pt-2" value="num = escreva um numero" style="whiteSpace=wrap;html=1;" parent="1" vertex="1">
          <mxGeometry x="755" y="1080" width="120" height="60" as="geometry" />
        </mxCell>
        <mxCell id="YArdOLymc6WrVnxbB5pt-7" value="" style="edgeStyle=orthogonalEdgeStyle;rounded=0;orthogonalLoop=1;jettySize=auto;html=1;" parent="1" source="YArdOLymc6WrVnxbB5pt-4" target="YArdOLymc6WrVnxbB5pt-6" edge="1">
          <mxGeometry relative="1" as="geometry" />
        </mxCell>
        <mxCell id="YArdOLymc6WrVnxbB5pt-9" value="" style="edgeStyle=orthogonalEdgeStyle;rounded=0;orthogonalLoop=1;jettySize=auto;html=1;" parent="1" source="YArdOLymc6WrVnxbB5pt-4" target="YArdOLymc6WrVnxbB5pt-8" edge="1">
          <mxGeometry relative="1" as="geometry" />
        </mxCell>
        <mxCell id="YArdOLymc6WrVnxbB5pt-4" value="num%2 == 0" style="rhombus;whiteSpace=wrap;html=1;" parent="1" vertex="1">
          <mxGeometry x="757.5" y="1200" width="115" height="80" as="geometry" />
        </mxCell>
        <mxCell id="YArdOLymc6WrVnxbB5pt-29" value="" style="edgeStyle=orthogonalEdgeStyle;rounded=0;orthogonalLoop=1;jettySize=auto;html=1;" parent="1" source="YArdOLymc6WrVnxbB5pt-6" target="YArdOLymc6WrVnxbB5pt-27" edge="1">
          <mxGeometry relative="1" as="geometry" />
        </mxCell>
        <mxCell id="YArdOLymc6WrVnxbB5pt-6" value="exibir numero par" style="whiteSpace=wrap;html=1;" parent="1" vertex="1">
          <mxGeometry x="950" y="1210" width="120" height="60" as="geometry" />
        </mxCell>
        <mxCell id="YArdOLymc6WrVnxbB5pt-28" value="" style="edgeStyle=orthogonalEdgeStyle;rounded=0;orthogonalLoop=1;jettySize=auto;html=1;" parent="1" source="YArdOLymc6WrVnxbB5pt-8" target="YArdOLymc6WrVnxbB5pt-27" edge="1">
          <mxGeometry relative="1" as="geometry" />
        </mxCell>
        <mxCell id="YArdOLymc6WrVnxbB5pt-8" value="exibir numero impar" style="whiteSpace=wrap;html=1;" parent="1" vertex="1">
          <mxGeometry x="755" y="1370" width="120" height="60" as="geometry" />
        </mxCell>
        <mxCell id="YArdOLymc6WrVnxbB5pt-10" value="Atividade 5" style="text;html=1;align=center;verticalAlign=middle;whiteSpace=wrap;rounded=0;" parent="1" vertex="1">
          <mxGeometry x="980" y="1050" width="100" height="30" as="geometry" />
        </mxCell>
        <mxCell id="YArdOLymc6WrVnxbB5pt-11" style="edgeStyle=orthogonalEdgeStyle;rounded=0;orthogonalLoop=1;jettySize=auto;html=1;exitX=0.5;exitY=1;exitDx=0;exitDy=0;" parent="1" source="YArdOLymc6WrVnxbB5pt-10" target="YArdOLymc6WrVnxbB5pt-10" edge="1">
          <mxGeometry relative="1" as="geometry" />
        </mxCell>
        <mxCell id="YArdOLymc6WrVnxbB5pt-14" value="" style="edgeStyle=orthogonalEdgeStyle;rounded=0;orthogonalLoop=1;jettySize=auto;html=1;entryX=0.5;entryY=0;entryDx=0;entryDy=0;" parent="1" source="YArdOLymc6WrVnxbB5pt-12" target="YArdOLymc6WrVnxbB5pt-15" edge="1">
          <mxGeometry relative="1" as="geometry">
            <mxPoint x="1844.9999999999995" y="1180" as="targetPoint" />
          </mxGeometry>
        </mxCell>
        <mxCell id="YArdOLymc6WrVnxbB5pt-12" value="inicio" style="ellipse;whiteSpace=wrap;html=1;" parent="1" vertex="1">
          <mxGeometry x="1785" y="1080" width="120" height="80" as="geometry" />
        </mxCell>
        <mxCell id="YArdOLymc6WrVnxbB5pt-19" value="" style="edgeStyle=orthogonalEdgeStyle;rounded=0;orthogonalLoop=1;jettySize=auto;html=1;" parent="1" source="YArdOLymc6WrVnxbB5pt-15" target="YArdOLymc6WrVnxbB5pt-18" edge="1">
          <mxGeometry relative="1" as="geometry" />
        </mxCell>
        <mxCell id="YArdOLymc6WrVnxbB5pt-15" value="n1 = escreva um numero" style="rounded=0;whiteSpace=wrap;html=1;" parent="1" vertex="1">
          <mxGeometry x="1785" y="1200" width="120" height="60" as="geometry" />
        </mxCell>
        <mxCell id="YArdOLymc6WrVnxbB5pt-21" value="" style="edgeStyle=orthogonalEdgeStyle;rounded=0;orthogonalLoop=1;jettySize=auto;html=1;" parent="1" source="YArdOLymc6WrVnxbB5pt-18" target="YArdOLymc6WrVnxbB5pt-20" edge="1">
          <mxGeometry relative="1" as="geometry" />
        </mxCell>
        <mxCell id="YArdOLymc6WrVnxbB5pt-18" value="n2 = escreva um numero" style="rounded=0;whiteSpace=wrap;html=1;" parent="1" vertex="1">
          <mxGeometry x="1785" y="1280" width="120" height="60" as="geometry" />
        </mxCell>
        <mxCell id="YArdOLymc6WrVnxbB5pt-23" value="" style="edgeStyle=orthogonalEdgeStyle;rounded=0;orthogonalLoop=1;jettySize=auto;html=1;" parent="1" source="YArdOLymc6WrVnxbB5pt-20" target="YArdOLymc6WrVnxbB5pt-22" edge="1">
          <mxGeometry relative="1" as="geometry" />
        </mxCell>
        <mxCell id="YArdOLymc6WrVnxbB5pt-25" value="" style="edgeStyle=orthogonalEdgeStyle;rounded=0;orthogonalLoop=1;jettySize=auto;html=1;" parent="1" source="YArdOLymc6WrVnxbB5pt-20" target="YArdOLymc6WrVnxbB5pt-24" edge="1">
          <mxGeometry relative="1" as="geometry" />
        </mxCell>
        <mxCell id="YArdOLymc6WrVnxbB5pt-20" value="n1&amp;lt;n2" style="rhombus;whiteSpace=wrap;html=1;rounded=0;" parent="1" vertex="1">
          <mxGeometry x="1805" y="1410" width="80" height="80" as="geometry" />
        </mxCell>
        <mxCell id="YArdOLymc6WrVnxbB5pt-31" value="" style="edgeStyle=orthogonalEdgeStyle;rounded=0;orthogonalLoop=1;jettySize=auto;html=1;" parent="1" source="YArdOLymc6WrVnxbB5pt-22" target="YArdOLymc6WrVnxbB5pt-30" edge="1">
          <mxGeometry relative="1" as="geometry" />
        </mxCell>
        <mxCell id="YArdOLymc6WrVnxbB5pt-22" value="exiba n2 é maior" style="whiteSpace=wrap;html=1;rounded=0;" parent="1" vertex="1">
          <mxGeometry x="1945" y="1420" width="120" height="60" as="geometry" />
        </mxCell>
        <mxCell id="YArdOLymc6WrVnxbB5pt-32" value="" style="edgeStyle=orthogonalEdgeStyle;rounded=0;orthogonalLoop=1;jettySize=auto;html=1;" parent="1" source="YArdOLymc6WrVnxbB5pt-24" target="YArdOLymc6WrVnxbB5pt-30" edge="1">
          <mxGeometry relative="1" as="geometry" />
        </mxCell>
        <mxCell id="YArdOLymc6WrVnxbB5pt-24" value="exiba n1 maior" style="whiteSpace=wrap;html=1;rounded=0;" parent="1" vertex="1">
          <mxGeometry x="1785" y="1580" width="120" height="60" as="geometry" />
        </mxCell>
        <mxCell id="YArdOLymc6WrVnxbB5pt-27" value="fim" style="ellipse;whiteSpace=wrap;html=1;" parent="1" vertex="1">
          <mxGeometry x="960" y="1330" width="120" height="80" as="geometry" />
        </mxCell>
        <mxCell id="YArdOLymc6WrVnxbB5pt-30" value="fim" style="ellipse;whiteSpace=wrap;html=1;" parent="1" vertex="1">
          <mxGeometry x="1960" y="1550" width="120" height="80" as="geometry" />
        </mxCell>
        <mxCell id="YArdOLymc6WrVnxbB5pt-33" value="Atividade 7" style="text;html=1;align=center;verticalAlign=middle;whiteSpace=wrap;rounded=0;" parent="1" vertex="1">
          <mxGeometry x="1990" y="1250" width="100" height="30" as="geometry" />
        </mxCell>
        <mxCell id="YArdOLymc6WrVnxbB5pt-34" value="Atividade 9" style="text;html=1;align=center;verticalAlign=middle;whiteSpace=wrap;rounded=0;" parent="1" vertex="1">
          <mxGeometry x="2910" y="1235" width="80" height="45" as="geometry" />
        </mxCell>
        <mxCell id="YArdOLymc6WrVnxbB5pt-37" value="" style="edgeStyle=orthogonalEdgeStyle;rounded=0;orthogonalLoop=1;jettySize=auto;html=1;" parent="1" source="YArdOLymc6WrVnxbB5pt-35" target="YArdOLymc6WrVnxbB5pt-36" edge="1">
          <mxGeometry relative="1" as="geometry" />
        </mxCell>
        <mxCell id="YArdOLymc6WrVnxbB5pt-35" value="inicio" style="ellipse;whiteSpace=wrap;html=1;" parent="1" vertex="1">
          <mxGeometry x="3660" y="1180" width="120" height="80" as="geometry" />
        </mxCell>
        <mxCell id="YArdOLymc6WrVnxbB5pt-39" value="" style="edgeStyle=orthogonalEdgeStyle;rounded=0;orthogonalLoop=1;jettySize=auto;html=1;" parent="1" source="YArdOLymc6WrVnxbB5pt-36" target="YArdOLymc6WrVnxbB5pt-38" edge="1">
          <mxGeometry relative="1" as="geometry" />
        </mxCell>
        <mxCell id="YArdOLymc6WrVnxbB5pt-36" value="ano = escreva um ano" style="whiteSpace=wrap;html=1;" parent="1" vertex="1">
          <mxGeometry x="3660" y="1290" width="120" height="60" as="geometry" />
        </mxCell>
        <mxCell id="YArdOLymc6WrVnxbB5pt-41" value="não" style="edgeStyle=orthogonalEdgeStyle;rounded=0;orthogonalLoop=1;jettySize=auto;html=1;" parent="1" source="YArdOLymc6WrVnxbB5pt-38" target="YArdOLymc6WrVnxbB5pt-40" edge="1">
          <mxGeometry relative="1" as="geometry" />
        </mxCell>
        <mxCell id="YArdOLymc6WrVnxbB5pt-45" value="sim" style="edgeStyle=orthogonalEdgeStyle;rounded=0;orthogonalLoop=1;jettySize=auto;html=1;" parent="1" source="YArdOLymc6WrVnxbB5pt-38" target="YArdOLymc6WrVnxbB5pt-44" edge="1">
          <mxGeometry relative="1" as="geometry" />
        </mxCell>
        <mxCell id="YArdOLymc6WrVnxbB5pt-38" value="ano%4 == 0" style="rhombus;whiteSpace=wrap;html=1;" parent="1" vertex="1">
          <mxGeometry x="3645" y="1420" width="150" height="80" as="geometry" />
        </mxCell>
        <mxCell id="YArdOLymc6WrVnxbB5pt-57" style="edgeStyle=orthogonalEdgeStyle;rounded=0;orthogonalLoop=1;jettySize=auto;html=1;exitX=1;exitY=0.5;exitDx=0;exitDy=0;entryX=0.5;entryY=0;entryDx=0;entryDy=0;" parent="1" source="YArdOLymc6WrVnxbB5pt-40" target="YArdOLymc6WrVnxbB5pt-56" edge="1">
          <mxGeometry relative="1" as="geometry" />
        </mxCell>
        <mxCell id="YArdOLymc6WrVnxbB5pt-40" value="exiba ano normal" style="whiteSpace=wrap;html=1;" parent="1" vertex="1">
          <mxGeometry x="3850" y="1430" width="120" height="60" as="geometry" />
        </mxCell>
        <mxCell id="YArdOLymc6WrVnxbB5pt-47" value="não" style="edgeStyle=orthogonalEdgeStyle;rounded=0;orthogonalLoop=1;jettySize=auto;html=1;" parent="1" source="YArdOLymc6WrVnxbB5pt-44" target="YArdOLymc6WrVnxbB5pt-46" edge="1">
          <mxGeometry relative="1" as="geometry" />
        </mxCell>
        <mxCell id="YArdOLymc6WrVnxbB5pt-51" value="sim" style="edgeStyle=orthogonalEdgeStyle;rounded=0;orthogonalLoop=1;jettySize=auto;html=1;" parent="1" source="YArdOLymc6WrVnxbB5pt-44" target="YArdOLymc6WrVnxbB5pt-50" edge="1">
          <mxGeometry relative="1" as="geometry" />
        </mxCell>
        <mxCell id="YArdOLymc6WrVnxbB5pt-44" value="ano%100 == 0" style="rhombus;whiteSpace=wrap;html=1;" parent="1" vertex="1">
          <mxGeometry x="3645" y="1580" width="150" height="80" as="geometry" />
        </mxCell>
        <mxCell id="YArdOLymc6WrVnxbB5pt-58" style="edgeStyle=orthogonalEdgeStyle;rounded=0;orthogonalLoop=1;jettySize=auto;html=1;exitX=1;exitY=0.5;exitDx=0;exitDy=0;entryX=0;entryY=0;entryDx=0;entryDy=0;" parent="1" source="YArdOLymc6WrVnxbB5pt-46" target="YArdOLymc6WrVnxbB5pt-56" edge="1">
          <mxGeometry relative="1" as="geometry" />
        </mxCell>
        <mxCell id="YArdOLymc6WrVnxbB5pt-46" value="exiba ano normal" style="whiteSpace=wrap;html=1;" parent="1" vertex="1">
          <mxGeometry x="3850" y="1590" width="120" height="60" as="geometry" />
        </mxCell>
        <mxCell id="YArdOLymc6WrVnxbB5pt-53" value="não" style="edgeStyle=orthogonalEdgeStyle;rounded=0;orthogonalLoop=1;jettySize=auto;html=1;" parent="1" source="YArdOLymc6WrVnxbB5pt-50" target="YArdOLymc6WrVnxbB5pt-52" edge="1">
          <mxGeometry relative="1" as="geometry" />
        </mxCell>
        <mxCell id="YArdOLymc6WrVnxbB5pt-55" value="sim" style="edgeStyle=orthogonalEdgeStyle;rounded=0;orthogonalLoop=1;jettySize=auto;html=1;" parent="1" source="YArdOLymc6WrVnxbB5pt-50" target="YArdOLymc6WrVnxbB5pt-54" edge="1">
          <mxGeometry relative="1" as="geometry" />
        </mxCell>
        <mxCell id="YArdOLymc6WrVnxbB5pt-50" value="ano%400 == 0" style="rhombus;whiteSpace=wrap;html=1;" parent="1" vertex="1">
          <mxGeometry x="3645" y="1740" width="150" height="80" as="geometry" />
        </mxCell>
        <mxCell id="YArdOLymc6WrVnxbB5pt-59" style="edgeStyle=orthogonalEdgeStyle;rounded=0;orthogonalLoop=1;jettySize=auto;html=1;exitX=1;exitY=0.5;exitDx=0;exitDy=0;entryX=0;entryY=1;entryDx=0;entryDy=0;" parent="1" source="YArdOLymc6WrVnxbB5pt-52" target="YArdOLymc6WrVnxbB5pt-56" edge="1">
          <mxGeometry relative="1" as="geometry">
            <Array as="points">
              <mxPoint x="4020" y="1780" />
              <mxPoint x="4020" y="1678" />
            </Array>
          </mxGeometry>
        </mxCell>
        <mxCell id="YArdOLymc6WrVnxbB5pt-52" value="Exiba ano normal" style="whiteSpace=wrap;html=1;" parent="1" vertex="1">
          <mxGeometry x="3860" y="1750" width="120" height="60" as="geometry" />
        </mxCell>
        <mxCell id="YArdOLymc6WrVnxbB5pt-60" style="edgeStyle=orthogonalEdgeStyle;rounded=0;orthogonalLoop=1;jettySize=auto;html=1;entryX=0.5;entryY=1;entryDx=0;entryDy=0;" parent="1" source="YArdOLymc6WrVnxbB5pt-54" target="YArdOLymc6WrVnxbB5pt-56" edge="1">
          <mxGeometry relative="1" as="geometry" />
        </mxCell>
        <mxCell id="YArdOLymc6WrVnxbB5pt-54" value="Exibir ano bissexto" style="whiteSpace=wrap;html=1;" parent="1" vertex="1">
          <mxGeometry x="3660" y="1910" width="120" height="60" as="geometry" />
        </mxCell>
        <mxCell id="YArdOLymc6WrVnxbB5pt-56" value="fim" style="ellipse;whiteSpace=wrap;html=1;" parent="1" vertex="1">
          <mxGeometry x="4060" y="1610" width="120" height="80" as="geometry" />
        </mxCell>
        <mxCell id="YArdOLymc6WrVnxbB5pt-61" value="Atividade 10" style="text;html=1;align=center;verticalAlign=middle;whiteSpace=wrap;rounded=0;" parent="1" vertex="1">
          <mxGeometry x="3860" y="1315" width="110" height="25" as="geometry" />
        </mxCell>
        <mxCell id="YArdOLymc6WrVnxbB5pt-64" value="" style="edgeStyle=orthogonalEdgeStyle;rounded=0;orthogonalLoop=1;jettySize=auto;html=1;" parent="1" source="YArdOLymc6WrVnxbB5pt-62" target="YArdOLymc6WrVnxbB5pt-63" edge="1">
          <mxGeometry relative="1" as="geometry" />
        </mxCell>
        <mxCell id="YArdOLymc6WrVnxbB5pt-62" value="inicio" style="ellipse;whiteSpace=wrap;html=1;" parent="1" vertex="1">
          <mxGeometry x="4500" y="1250" width="120" height="80" as="geometry" />
        </mxCell>
        <mxCell id="YArdOLymc6WrVnxbB5pt-66" value="" style="edgeStyle=orthogonalEdgeStyle;rounded=0;orthogonalLoop=1;jettySize=auto;html=1;" parent="1" source="YArdOLymc6WrVnxbB5pt-63" target="YArdOLymc6WrVnxbB5pt-65" edge="1">
          <mxGeometry relative="1" as="geometry" />
        </mxCell>
        <mxCell id="YArdOLymc6WrVnxbB5pt-63" value="num = escreva um numero" style="whiteSpace=wrap;html=1;" parent="1" vertex="1">
          <mxGeometry x="4500" y="1370" width="120" height="60" as="geometry" />
        </mxCell>
        <mxCell id="YArdOLymc6WrVnxbB5pt-68" value="" style="edgeStyle=orthogonalEdgeStyle;rounded=0;orthogonalLoop=1;jettySize=auto;html=1;" parent="1" source="YArdOLymc6WrVnxbB5pt-65" target="YArdOLymc6WrVnxbB5pt-67" edge="1">
          <mxGeometry relative="1" as="geometry" />
        </mxCell>
        <mxCell id="YArdOLymc6WrVnxbB5pt-65" value="calc = num-1" style="whiteSpace=wrap;html=1;" parent="1" vertex="1">
          <mxGeometry x="4500" y="1500" width="120" height="60" as="geometry" />
        </mxCell>
        <mxCell id="YArdOLymc6WrVnxbB5pt-70" value="sim" style="edgeStyle=orthogonalEdgeStyle;rounded=0;orthogonalLoop=1;jettySize=auto;html=1;" parent="1" source="YArdOLymc6WrVnxbB5pt-67" target="YArdOLymc6WrVnxbB5pt-69" edge="1">
          <mxGeometry relative="1" as="geometry" />
        </mxCell>
        <mxCell id="YArdOLymc6WrVnxbB5pt-74" value="" style="edgeStyle=orthogonalEdgeStyle;rounded=0;orthogonalLoop=1;jettySize=auto;html=1;" parent="1" source="YArdOLymc6WrVnxbB5pt-67" target="YArdOLymc6WrVnxbB5pt-73" edge="1">
          <mxGeometry relative="1" as="geometry" />
        </mxCell>
        <mxCell id="YArdOLymc6WrVnxbB5pt-67" value="calc == 0" style="rhombus;whiteSpace=wrap;html=1;" parent="1" vertex="1">
          <mxGeometry x="4495" y="1630" width="130" height="80" as="geometry" />
        </mxCell>
        <mxCell id="YArdOLymc6WrVnxbB5pt-72" value="" style="edgeStyle=orthogonalEdgeStyle;rounded=0;orthogonalLoop=1;jettySize=auto;html=1;" parent="1" source="YArdOLymc6WrVnxbB5pt-69" target="YArdOLymc6WrVnxbB5pt-71" edge="1">
          <mxGeometry relative="1" as="geometry" />
        </mxCell>
        <mxCell id="YArdOLymc6WrVnxbB5pt-69" value="exibir &quot;a contagem acabou&quot;" style="whiteSpace=wrap;html=1;" parent="1" vertex="1">
          <mxGeometry x="4500" y="1780" width="120" height="60" as="geometry" />
        </mxCell>
        <mxCell id="YArdOLymc6WrVnxbB5pt-71" value="fim" style="ellipse;whiteSpace=wrap;html=1;" parent="1" vertex="1">
          <mxGeometry x="4500" y="1900" width="120" height="80" as="geometry" />
        </mxCell>
        <mxCell id="YArdOLymc6WrVnxbB5pt-75" style="edgeStyle=orthogonalEdgeStyle;rounded=0;orthogonalLoop=1;jettySize=auto;html=1;entryX=1;entryY=0.25;entryDx=0;entryDy=0;" parent="1" source="YArdOLymc6WrVnxbB5pt-73" target="YArdOLymc6WrVnxbB5pt-65" edge="1">
          <mxGeometry relative="1" as="geometry">
            <Array as="points">
              <mxPoint x="4820" y="1515" />
            </Array>
          </mxGeometry>
        </mxCell>
        <mxCell id="YArdOLymc6WrVnxbB5pt-73" value="exibir (f&quot;restam {calc} tentativas&quot;)" style="whiteSpace=wrap;html=1;" parent="1" vertex="1">
          <mxGeometry x="4710" y="1640" width="190" height="60" as="geometry" />
        </mxCell>
        <mxCell id="YArdOLymc6WrVnxbB5pt-91" value="Atividade 3" style="text;html=1;align=center;verticalAlign=middle;whiteSpace=wrap;rounded=0;" parent="1" vertex="1">
          <mxGeometry x="2020" y="-280" width="85" height="30" as="geometry" />
        </mxCell>
        <mxCell id="YArdOLymc6WrVnxbB5pt-92" value="Atividade 11" style="text;html=1;align=center;verticalAlign=middle;whiteSpace=wrap;rounded=0;" parent="1" vertex="1">
          <mxGeometry x="4730" y="1350" width="130" height="70" as="geometry" />
        </mxCell>
        <mxCell id="1AM3jGV8UHVyq0PQ_dpR-3" value="" style="edgeStyle=orthogonalEdgeStyle;rounded=0;orthogonalLoop=1;jettySize=auto;html=1;" edge="1" parent="1" source="1AM3jGV8UHVyq0PQ_dpR-1" target="1AM3jGV8UHVyq0PQ_dpR-2">
          <mxGeometry relative="1" as="geometry" />
        </mxCell>
        <mxCell id="1AM3jGV8UHVyq0PQ_dpR-1" value="inserir tempo" style="rounded=0;whiteSpace=wrap;html=1;" vertex="1" parent="1">
          <mxGeometry x="1795" y="-240" width="120" height="60" as="geometry" />
        </mxCell>
        <mxCell id="1AM3jGV8UHVyq0PQ_dpR-5" value="não" style="edgeStyle=orthogonalEdgeStyle;rounded=0;orthogonalLoop=1;jettySize=auto;html=1;" edge="1" parent="1" source="1AM3jGV8UHVyq0PQ_dpR-2">
          <mxGeometry relative="1" as="geometry">
            <mxPoint x="1855" y="20.000000000000227" as="targetPoint" />
          </mxGeometry>
        </mxCell>
        <mxCell id="1AM3jGV8UHVyq0PQ_dpR-7" value="sim" style="edgeStyle=orthogonalEdgeStyle;rounded=0;orthogonalLoop=1;jettySize=auto;html=1;" edge="1" parent="1" source="1AM3jGV8UHVyq0PQ_dpR-2" target="1AM3jGV8UHVyq0PQ_dpR-6">
          <mxGeometry relative="1" as="geometry" />
        </mxCell>
        <mxCell id="1AM3jGV8UHVyq0PQ_dpR-2" value="tempo &amp;lt;=1" style="rhombus;whiteSpace=wrap;html=1;rounded=0;" vertex="1" parent="1">
          <mxGeometry x="1760" y="-110" width="190" height="80" as="geometry" />
        </mxCell>
        <mxCell id="1AM3jGV8UHVyq0PQ_dpR-37" style="edgeStyle=orthogonalEdgeStyle;rounded=0;orthogonalLoop=1;jettySize=auto;html=1;entryX=0.5;entryY=0;entryDx=0;entryDy=0;" edge="1" parent="1" source="1AM3jGV8UHVyq0PQ_dpR-6" target="1AM3jGV8UHVyq0PQ_dpR-31">
          <mxGeometry relative="1" as="geometry" />
        </mxCell>
        <mxCell id="1AM3jGV8UHVyq0PQ_dpR-6" value="&amp;nbsp;15.00" style="whiteSpace=wrap;html=1;rounded=0;" vertex="1" parent="1">
          <mxGeometry x="2065" y="-100" width="120" height="60" as="geometry" />
        </mxCell>
        <mxCell id="1AM3jGV8UHVyq0PQ_dpR-11" value="sim" style="edgeStyle=orthogonalEdgeStyle;rounded=0;orthogonalLoop=1;jettySize=auto;html=1;" edge="1" parent="1" source="1AM3jGV8UHVyq0PQ_dpR-9" target="1AM3jGV8UHVyq0PQ_dpR-10">
          <mxGeometry relative="1" as="geometry" />
        </mxCell>
        <mxCell id="1AM3jGV8UHVyq0PQ_dpR-15" value="não" style="edgeStyle=orthogonalEdgeStyle;rounded=0;orthogonalLoop=1;jettySize=auto;html=1;" edge="1" parent="1" source="1AM3jGV8UHVyq0PQ_dpR-9">
          <mxGeometry relative="1" as="geometry">
            <mxPoint x="1855" y="179.99999999999977" as="targetPoint" />
          </mxGeometry>
        </mxCell>
        <mxCell id="1AM3jGV8UHVyq0PQ_dpR-9" value="tempo &amp;lt;=6" style="rhombus;whiteSpace=wrap;html=1;" vertex="1" parent="1">
          <mxGeometry x="1770" y="20" width="170" height="80" as="geometry" />
        </mxCell>
        <mxCell id="1AM3jGV8UHVyq0PQ_dpR-13" value="" style="edgeStyle=orthogonalEdgeStyle;rounded=0;orthogonalLoop=1;jettySize=auto;html=1;" edge="1" parent="1" source="1AM3jGV8UHVyq0PQ_dpR-10" target="1AM3jGV8UHVyq0PQ_dpR-12">
          <mxGeometry relative="1" as="geometry" />
        </mxCell>
        <mxCell id="1AM3jGV8UHVyq0PQ_dpR-10" value="horasAdicionais = tempo - 1" style="whiteSpace=wrap;html=1;" vertex="1" parent="1">
          <mxGeometry x="2045" y="30" width="120" height="60" as="geometry" />
        </mxCell>
        <mxCell id="1AM3jGV8UHVyq0PQ_dpR-40" style="edgeStyle=orthogonalEdgeStyle;rounded=0;orthogonalLoop=1;jettySize=auto;html=1;entryX=0.5;entryY=0;entryDx=0;entryDy=0;exitX=1;exitY=0.5;exitDx=0;exitDy=0;" edge="1" parent="1" source="1AM3jGV8UHVyq0PQ_dpR-12" target="1AM3jGV8UHVyq0PQ_dpR-31">
          <mxGeometry relative="1" as="geometry" />
        </mxCell>
        <mxCell id="1AM3jGV8UHVyq0PQ_dpR-12" value="valor = (horasAdicionais*3)+15" style="whiteSpace=wrap;html=1;" vertex="1" parent="1">
          <mxGeometry x="2245" y="30" width="170" height="60" as="geometry" />
        </mxCell>
        <mxCell id="1AM3jGV8UHVyq0PQ_dpR-18" value="" style="edgeStyle=orthogonalEdgeStyle;rounded=0;orthogonalLoop=1;jettySize=auto;html=1;" edge="1" parent="1" source="1AM3jGV8UHVyq0PQ_dpR-16" target="1AM3jGV8UHVyq0PQ_dpR-17">
          <mxGeometry relative="1" as="geometry" />
        </mxCell>
        <mxCell id="1AM3jGV8UHVyq0PQ_dpR-16" value="resultado = tempo/24" style="rounded=0;whiteSpace=wrap;html=1;" vertex="1" parent="1">
          <mxGeometry x="1795" y="180" width="120" height="60" as="geometry" />
        </mxCell>
        <mxCell id="1AM3jGV8UHVyq0PQ_dpR-20" value="sim" style="edgeStyle=orthogonalEdgeStyle;rounded=0;orthogonalLoop=1;jettySize=auto;html=1;" edge="1" parent="1" source="1AM3jGV8UHVyq0PQ_dpR-17" target="1AM3jGV8UHVyq0PQ_dpR-19">
          <mxGeometry relative="1" as="geometry" />
        </mxCell>
        <mxCell id="1AM3jGV8UHVyq0PQ_dpR-42" value="" style="edgeStyle=orthogonalEdgeStyle;rounded=0;orthogonalLoop=1;jettySize=auto;html=1;" edge="1" parent="1" source="1AM3jGV8UHVyq0PQ_dpR-17" target="1AM3jGV8UHVyq0PQ_dpR-41">
          <mxGeometry relative="1" as="geometry" />
        </mxCell>
        <mxCell id="1AM3jGV8UHVyq0PQ_dpR-17" value="resto = 0" style="rhombus;whiteSpace=wrap;html=1;rounded=0;" vertex="1" parent="1">
          <mxGeometry x="1775" y="260" width="160" height="80" as="geometry" />
        </mxCell>
        <mxCell id="1AM3jGV8UHVyq0PQ_dpR-35" style="edgeStyle=orthogonalEdgeStyle;rounded=0;orthogonalLoop=1;jettySize=auto;html=1;entryX=0.5;entryY=0;entryDx=0;entryDy=0;" edge="1" parent="1" source="1AM3jGV8UHVyq0PQ_dpR-19" target="1AM3jGV8UHVyq0PQ_dpR-31">
          <mxGeometry relative="1" as="geometry" />
        </mxCell>
        <mxCell id="1AM3jGV8UHVyq0PQ_dpR-19" value="&amp;nbsp; resultado*30" style="whiteSpace=wrap;html=1;rounded=0;" vertex="1" parent="1">
          <mxGeometry x="2035" y="270" width="120" height="60" as="geometry" />
        </mxCell>
        <mxCell id="1AM3jGV8UHVyq0PQ_dpR-26" value="sim" style="edgeStyle=orthogonalEdgeStyle;rounded=0;orthogonalLoop=1;jettySize=auto;html=1;" edge="1" parent="1" source="1AM3jGV8UHVyq0PQ_dpR-23" target="1AM3jGV8UHVyq0PQ_dpR-25">
          <mxGeometry relative="1" as="geometry" />
        </mxCell>
        <mxCell id="1AM3jGV8UHVyq0PQ_dpR-30" value="não" style="edgeStyle=orthogonalEdgeStyle;rounded=0;orthogonalLoop=1;jettySize=auto;html=1;" edge="1" parent="1" source="1AM3jGV8UHVyq0PQ_dpR-23" target="1AM3jGV8UHVyq0PQ_dpR-29">
          <mxGeometry relative="1" as="geometry" />
        </mxCell>
        <mxCell id="1AM3jGV8UHVyq0PQ_dpR-23" value="resto &amp;lt;=9" style="rhombus;whiteSpace=wrap;html=1;rounded=0;" vertex="1" parent="1">
          <mxGeometry x="1787.5" y="550" width="135" height="80" as="geometry" />
        </mxCell>
        <mxCell id="1AM3jGV8UHVyq0PQ_dpR-28" value="" style="edgeStyle=orthogonalEdgeStyle;rounded=0;orthogonalLoop=1;jettySize=auto;html=1;" edge="1" parent="1" source="1AM3jGV8UHVyq0PQ_dpR-25" target="1AM3jGV8UHVyq0PQ_dpR-27">
          <mxGeometry relative="1" as="geometry" />
        </mxCell>
        <mxCell id="1AM3jGV8UHVyq0PQ_dpR-25" value="resto = resto*3" style="whiteSpace=wrap;html=1;rounded=0;" vertex="1" parent="1">
          <mxGeometry x="2035" y="560" width="120" height="60" as="geometry" />
        </mxCell>
        <mxCell id="1AM3jGV8UHVyq0PQ_dpR-34" style="edgeStyle=orthogonalEdgeStyle;rounded=0;orthogonalLoop=1;jettySize=auto;html=1;exitX=1;exitY=0.5;exitDx=0;exitDy=0;entryX=0.5;entryY=0;entryDx=0;entryDy=0;" edge="1" parent="1" source="1AM3jGV8UHVyq0PQ_dpR-27" target="1AM3jGV8UHVyq0PQ_dpR-31">
          <mxGeometry relative="1" as="geometry" />
        </mxCell>
        <mxCell id="1AM3jGV8UHVyq0PQ_dpR-27" value="(resultado*30)+resto" style="whiteSpace=wrap;html=1;rounded=0;" vertex="1" parent="1">
          <mxGeometry x="2210" y="560" width="120" height="60" as="geometry" />
        </mxCell>
        <mxCell id="1AM3jGV8UHVyq0PQ_dpR-33" value="" style="edgeStyle=orthogonalEdgeStyle;rounded=0;orthogonalLoop=1;jettySize=auto;html=1;entryX=0;entryY=0.5;entryDx=0;entryDy=0;" edge="1" parent="1" source="1AM3jGV8UHVyq0PQ_dpR-29" target="1AM3jGV8UHVyq0PQ_dpR-31">
          <mxGeometry relative="1" as="geometry" />
        </mxCell>
        <mxCell id="1AM3jGV8UHVyq0PQ_dpR-29" value="adicionar diaria" style="whiteSpace=wrap;html=1;rounded=0;" vertex="1" parent="1">
          <mxGeometry x="1795" y="690" width="120" height="60" as="geometry" />
        </mxCell>
        <mxCell id="1AM3jGV8UHVyq0PQ_dpR-39" value="" style="edgeStyle=orthogonalEdgeStyle;rounded=0;orthogonalLoop=1;jettySize=auto;html=1;" edge="1" parent="1" source="1AM3jGV8UHVyq0PQ_dpR-31" target="1AM3jGV8UHVyq0PQ_dpR-38">
          <mxGeometry relative="1" as="geometry" />
        </mxCell>
        <mxCell id="1AM3jGV8UHVyq0PQ_dpR-31" value="cobrar" style="rounded=0;whiteSpace=wrap;html=1;" vertex="1" parent="1">
          <mxGeometry x="2400" y="690" width="120" height="60" as="geometry" />
        </mxCell>
        <mxCell id="1AM3jGV8UHVyq0PQ_dpR-38" value="Fim" style="ellipse;whiteSpace=wrap;html=1;" vertex="1" parent="1">
          <mxGeometry x="2400" y="820" width="120" height="80" as="geometry" />
        </mxCell>
        <mxCell id="1AM3jGV8UHVyq0PQ_dpR-45" value="" style="edgeStyle=orthogonalEdgeStyle;rounded=0;orthogonalLoop=1;jettySize=auto;html=1;" edge="1" parent="1" source="1AM3jGV8UHVyq0PQ_dpR-41" target="1AM3jGV8UHVyq0PQ_dpR-44">
          <mxGeometry relative="1" as="geometry" />
        </mxCell>
        <mxCell id="1AM3jGV8UHVyq0PQ_dpR-41" value="resultado = tempo//24" style="whiteSpace=wrap;html=1;rounded=0;" vertex="1" parent="1">
          <mxGeometry x="1795" y="360" width="120" height="60" as="geometry" />
        </mxCell>
        <mxCell id="1AM3jGV8UHVyq0PQ_dpR-46" value="" style="edgeStyle=orthogonalEdgeStyle;rounded=0;orthogonalLoop=1;jettySize=auto;html=1;" edge="1" parent="1" source="1AM3jGV8UHVyq0PQ_dpR-44" target="1AM3jGV8UHVyq0PQ_dpR-23">
          <mxGeometry relative="1" as="geometry" />
        </mxCell>
        <mxCell id="1AM3jGV8UHVyq0PQ_dpR-44" value="guardar resultado" style="whiteSpace=wrap;html=1;rounded=0;" vertex="1" parent="1">
          <mxGeometry x="1795" y="450" width="120" height="60" as="geometry" />
        </mxCell>
      </root>
    </mxGraphModel>
  </diagram>
</mxfile>
